<?xml version="1.0" encoding="utf-8"?>
<!-- Generator: Adobe Illustrator 27.2.0, SVG Export Plug-In . SVG Version: 6.00 Build 0)  -->
<svg version="1.1" id="Laag_2_00000012448916867598045050000011279677542362772097_"
	 xmlns="http://www.w3.org/2000/svg" xmlns:xlink="http://www.w3.org/1999/xlink" x="0px" y="0px" viewBox="0 0 500 500"
	 style="enable-background:new 0 0 500 500;" xml:space="preserve">
<style type="text/css">
	.st0{fill:#16AE97;}
</style>
<g>
	<path id="Beeld_Logo" class="st0" d="M422.62,40.19H315.25c-65.06,0-120.24,50.71-122.66,115.58c-0.19,2.98,0,5.97,0,8.95
		L85.21,43.54C83.16,41.12,80.36,40,77.56,40c-5.22,0-10.44,4.1-10.44,10.44v399.31c0,5.78,4.66,10.25,10.25,10.25h107.38
		c65.06,0,120.24-50.71,122.66-115.58c0.19-2.98,0-5.97,0-8.95l107.38,120.99c2.05,2.42,4.85,3.54,7.64,3.54
		c5.22,0,10.44-4.1,10.44-10.44V50.44C432.88,44.66,428.4,40.19,422.62,40.19z M278.34,343.3c-1.86,48.28-43.81,87.62-93.58,87.62
		H96.21V100.03l157.71,177.66C270.51,295.58,279.27,318.88,278.34,343.3z M403.79,400.16c0,0-156.78-176.91-157.52-177.66
		c-16.78-17.9-25.54-41.2-24.61-65.62c1.86-48.28,43.81-87.62,93.58-87.62h88.55V400.16L403.79,400.16z"/>
</g>
</svg>
